<svg width="290" height="217" viewBox="0 0 290 217" fill="none" xmlns="http://www.w3.org/2000/svg">
  <g filter="url(#filter0_d_73_249)">
    <path d="M105.385 41.766L105.262 41.8853C104.403 42.7802 103.421 43.1978 102.501 43.1978L104.219 40.2745C105.324 38.4251 104.28 36.6354 102.562 36.6354C101.15 36.6354 100.046 37.1723 99.0024 38.9621L98.0819 40.5132L97.3454 41.766L97.2227 41.8853C95.8725 43.3768 94.5837 44.57 93.7859 44.57C93.3563 44.57 93.1722 44.2717 93.6018 43.6154L97.5295 36.9337H99.0024L99.5548 36.0984H98.0205L99.7389 33.1752H97.8977L96.1793 36.0984H94.5223L93.97 36.9337H95.627L91.9447 43.1382C91.1469 44.4506 91.6993 45.7035 93.1722 45.7035C94.2155 45.7035 95.4429 44.9279 96.5476 43.8541C96.5476 46.1211 99.8002 46.5983 101.764 44.1523H102.194C103.298 44.1523 105.017 43.4961 105.937 42.4222C105.937 42.124 105.63 41.8853 105.385 41.766ZM101.457 41.8853H101.396C100.782 41.8853 100.291 42.3626 100.291 42.9592C100.291 43.1978 100.353 43.3768 100.475 43.5558V43.6154C99.6161 45.0472 97.5295 44.8086 98.5728 42.8995L99.9844 40.5728L100.844 39.141C102.132 36.9933 103.912 37.8285 102.807 39.678L101.457 41.8853Z" fill="#766458"/>
    <path d="M130.854 41.7658L130.731 41.8851C129.381 43.3765 127.724 44.5697 126.435 44.5697C125.331 44.5697 124.655 43.8538 125.453 42.422L125.637 42.1237C126.803 42.601 129.074 42.3623 130.424 40.0357L130.67 39.6181C131.652 37.9476 130.731 36.7544 129.197 36.7544C127.724 36.7544 126.558 37.53 125.76 38.8425L123.98 41.8254L123.858 41.9447C122.508 43.4362 121.219 44.6294 120.421 44.6294C119.991 44.6294 119.807 44.3311 120.237 43.6748L122.876 39.1408C123.674 37.7686 122.937 36.8141 121.894 36.8141C121.096 36.8141 120.237 37.2317 119.316 38.1862L122.262 33.2346H120.421L115.327 41.7658L115.204 41.8851C113.854 43.3765 112.565 44.5697 111.768 44.5697C111.338 44.5697 111.154 44.2714 111.583 43.6152L115.511 36.9334H116.984L117.536 36.0982H116.002L117.721 33.1749H115.879L114.161 36.0982H112.504L111.952 36.9334H113.609L109.926 43.1379C109.129 44.4504 109.681 45.7032 111.154 45.7032C111.89 45.7032 112.688 45.3453 113.486 44.7487L112.995 45.5242H114.836L117.598 40.8112C120.421 37.351 121.648 37.8283 120.912 39.1408L118.518 43.1976C117.721 44.5101 118.273 45.7629 119.746 45.7629C120.85 45.7629 122.078 44.9277 123.183 43.8538C123.244 44.9873 124.226 45.7629 125.699 45.7629C127.785 45.7629 129.872 44.2118 131.345 42.4817C131.406 42.1237 131.099 41.8851 130.854 41.7658ZM127.356 39.2601C128.399 37.4703 130.302 37.7686 129.197 39.6181L128.951 40.0357C128.092 41.4675 126.865 41.4675 126.19 41.2288L127.356 39.2601Z" fill="#766458"/>
    <path d="M197.81 41.766L197.687 41.8853C197.012 42.6608 196.214 43.3171 195.478 43.854C196.091 42.1239 195.907 39.5586 197.073 37.2319L195.723 36.516C194.987 37.5302 193.33 39.8569 191.611 41.766L191.488 41.8853C190.138 43.3768 188.849 44.5699 188.052 44.5699C187.622 44.5699 187.438 44.2716 187.868 43.6154L191.795 36.9336H189.954L186.701 42.4819C185.29 43.7347 184.247 44.3909 183.878 44.2716C183.449 44.0927 183.878 43.4364 184.124 43.0188L187.683 36.9336H185.842L182.958 41.766L182.835 41.8853C181.976 42.7802 180.994 43.1978 180.073 43.1978L181.792 40.2745C182.896 38.4251 181.853 36.6353 180.135 36.6353C178.723 36.6353 177.619 37.1723 176.575 38.962L175.655 40.5131L174.918 41.766L174.796 41.8853C173.445 43.3768 171.788 44.5699 170.5 44.5699C169.395 44.5699 168.72 43.854 169.518 42.4222L169.702 42.1239C170.868 42.6012 173.138 42.3626 174.489 40.0359L174.734 39.6183C175.716 37.9478 174.796 36.7547 173.261 36.7547C171.788 36.7547 170.622 37.5302 169.824 38.8427L168.045 41.8256L167.922 41.945C166.388 43.675 165.099 44.7489 163.626 45.3455L167.738 38.4848H166.633C166.633 37.7689 165.835 36.7547 164.731 36.7547C163.749 36.7547 162.337 37.5302 161.601 38.8427L159.821 41.8256L159.698 41.945C158.348 43.4364 157.059 44.6296 156.261 44.6296C155.832 44.6296 155.648 44.3313 156.077 43.675L157.918 40.5728C158.532 39.4989 158.225 38.8427 157.673 38.1268L156.63 36.9336C156.384 36.6353 156.384 36.2177 156.752 35.9194L155.77 34.9052C154.727 35.8001 154.666 36.8143 155.28 37.6495L155.464 37.8285C154.666 38.962 153.561 40.4535 152.334 41.8256L152.211 41.945C151.352 42.8398 150.37 43.2574 149.449 43.2574L151.168 40.3342C152.272 38.4848 151.229 36.695 149.511 36.695C148.099 36.695 146.994 37.2319 145.951 39.0217L145.031 40.5728L144.294 41.8256L144.171 41.945C142.637 43.675 141.348 44.7489 139.875 45.3455L143.987 38.4848H142.883C142.883 37.7689 142.085 36.7547 140.98 36.7547C139.998 36.7547 138.587 37.5302 137.85 38.8427L135.273 43.1978C134.475 44.5103 135.027 45.7631 136.5 45.7631C136.991 45.7631 137.605 45.5245 138.28 45.1665L137.789 46.0017C135.334 46.7176 133.738 47.7318 133.738 49.0443C133.738 50.7744 136.439 51.1324 137.789 48.925L139.2 46.5983C140.673 46.1807 142.085 45.2858 143.619 43.9137C143.619 46.1807 146.872 46.658 148.836 44.212H149.265C150.37 44.212 152.088 43.5557 153.009 42.4819C153.868 41.4677 154.604 40.5728 156.077 38.6637L156.323 38.962C156.568 39.2603 156.63 39.6183 156.446 39.9762L154.482 43.2574C153.684 44.5699 154.236 45.8228 155.709 45.8228C156.63 45.8228 157.673 45.2262 158.655 44.3909C158.655 45.2262 159.207 45.8228 160.251 45.8228C160.742 45.8228 161.355 45.5841 162.03 45.2262L161.601 45.9421C159.146 46.658 157.55 47.6722 157.55 48.9847C157.55 50.7148 160.251 51.0727 161.601 48.8653L163.012 46.5387C164.485 46.0614 165.958 45.2262 167.492 43.7944C167.554 44.9279 168.474 45.7034 170.009 45.7034C171.481 45.7034 173.016 44.8682 174.243 43.7944C174.182 46.121 177.496 46.5983 179.46 44.1523H179.889C180.442 44.1523 181.239 43.9733 181.915 43.6154C181.424 44.8682 181.853 45.7034 182.896 45.7034C183.878 45.7034 185.044 44.8086 185.904 43.9733C185.72 44.9279 186.333 45.7034 187.499 45.7034C189.034 45.7034 190.752 44.1523 192.286 42.4222C193.33 41.229 194.25 39.9762 194.925 39.141C194.189 40.9904 194.618 44.3313 192.839 44.3313C192.225 44.3313 191.979 43.675 191.979 43.675L190.813 44.2716C190.813 44.2716 191.12 45.7034 192.839 45.7034C193.023 45.7034 193.145 45.7034 193.33 45.6438H193.391C195.293 45.4051 197.135 43.9733 198.485 42.4222C198.423 42.1239 198.117 41.8256 197.81 41.766ZM171.481 39.2603C172.525 37.4706 174.427 37.7689 173.323 39.6183L173.077 40.0359C172.218 41.4677 170.991 41.4677 170.315 41.229L171.481 39.2603ZM136.377 48.567C136.009 49.2233 135.395 49.1636 135.395 48.6267C135.395 48.1494 135.825 47.6125 137.236 47.0756L136.377 48.567ZM137.236 44.5699C136.807 44.5699 136.623 44.2716 137.052 43.6154L139.63 39.2603C140.612 37.5899 142.576 38.0075 141.655 39.6183L140.244 42.0046C139.139 43.7347 137.973 44.5699 137.236 44.5699ZM148.529 41.8853H148.467C147.854 41.8853 147.363 42.3626 147.363 42.9591C147.363 43.1978 147.424 43.3768 147.547 43.5557V43.6154C146.688 45.0472 144.601 44.8086 145.644 42.8995L147.056 40.5728L147.915 39.141C149.204 36.9933 150.984 37.8285 149.879 39.6779L148.529 41.8853ZM160.066 48.567C159.698 49.2233 159.085 49.1636 159.085 48.6267C159.085 48.1494 159.514 47.6125 160.926 47.0756L160.066 48.567ZM160.926 44.5699C160.496 44.5699 160.312 44.2716 160.742 43.6154L163.319 39.2603C164.301 37.5899 166.265 38.0075 165.344 39.6183L163.933 42.0046C162.828 43.7347 161.662 44.5699 160.926 44.5699ZM179.03 41.8853H178.969C178.355 41.8853 177.864 42.3626 177.864 42.9591C177.864 43.1978 177.925 43.3768 178.048 43.5557V43.6154C177.189 45.0472 175.102 44.8086 176.146 42.8995L177.557 40.5728L178.416 39.141C179.705 36.9933 181.485 37.8285 180.38 39.6779L179.03 41.8853Z" fill="#766458"/>
    <path d="M83.8437 39.8562H66.1074V41.0493H83.8437V39.8562Z" fill="#766458"/>
    <path d="M223.156 39.8562H205.42V41.0493H223.156V39.8562Z" fill="#766458"/>
    <path d="M104.035 0.00497437H108.76L108.024 26.7917H99.1252L97.8978 15.7548L96.6704 26.7917H87.7102L87.0351 0.00497437H91.6993L92.0675 22.198H92.5585L95.5657 0.00497437H100.23L103.237 22.198H103.728L104.035 0.00497437Z" fill="#81B3D3"/>
    <path d="M123.551 22.198V26.8513H110.724V0.00497437H123.551V4.59869H115.388V11.0418H121.894V15.6355H115.388V22.1383H123.551V22.198Z" fill="#81B3D3"/>
    <path d="M136.684 22.198V26.8513H125.453V0.00497437H130.118V22.198H136.684Z" fill="#81B3D3"/>
    <path d="M146.626 16.948L151.352 15.8742V23.9877C151.352 25.5389 150.002 26.7917 148.467 26.7917H141.41C139.814 26.7917 138.525 25.4792 138.525 23.9877V2.80893C138.525 1.2578 139.814 0.00497437 141.41 0.00497437H148.467C150.002 0.00497437 151.352 1.2578 151.352 2.80893V8.23786L146.626 9.31172V4.53903H143.251V22.1383H146.626V16.948Z" fill="#81B3D3"/>
    <path d="M164.117 0.00497437C165.651 0.00497437 167.001 1.2578 167.001 2.80893V23.9281C167.001 25.4792 165.651 26.732 164.117 26.732H157.059C155.464 26.732 154.175 25.4195 154.175 23.9281V2.80893C154.175 1.2578 155.464 0.00497437 157.059 0.00497437H164.117ZM162.276 4.59869H158.901V22.198H162.276V4.59869Z" fill="#81B3D3"/>
    <path d="M182.344 0.00497437H187.009V26.7917H182.344V13.6071L180.442 20.4082H175.839L173.998 13.6071V26.7917H169.334V0.00497437H173.998L178.171 12.9509L182.344 0.00497437Z" fill="#81B3D3"/>
    <path d="M202.167 22.198V26.8513H189.341V0.00497437H202.167V4.59869H194.005V11.0418H200.51V15.6355H194.005V22.1383H202.167V22.198Z" fill="#81B3D3"/>
    <path d="M31.1874 94.028C28.978 92.2382 26.2163 91.045 23.2705 91.045C21.0612 91.045 18.1767 92.2979 18.1767 94.8035C18.1767 97.4285 21.4294 98.4427 23.4546 99.0393L26.5232 99.9342C32.9058 101.784 37.8768 104.886 37.8768 112.105C37.8768 116.519 36.7721 121.113 33.1513 124.096C29.5304 127.079 24.7434 128.272 20.1406 128.272C14.3717 128.272 8.6642 126.363 4 123.201L8.97106 113.954C11.9782 116.519 15.4764 118.548 19.5882 118.548C22.4113 118.548 25.3571 117.176 25.3571 114.073C25.3571 110.792 20.6929 109.718 18.1153 109.002C10.6281 106.855 5.71839 105.005 5.71839 96.3547C5.71839 87.2865 12.3465 81.3803 21.5521 81.3803C26.155 81.3803 31.8625 82.8122 35.913 85.0792L31.1874 94.028Z" fill="white"/>
    <path d="M60.2158 92.3577V99.815H73.6561V109.659H60.2158V117.355H74.4539V127.198H48.3098V82.5737H74.4539V92.4173L60.2158 92.3577Z" fill="white"/>
    <path d="M83.2914 82.5737H100.23C112.995 82.5737 123.551 92.3577 123.551 104.886C123.551 117.414 112.934 127.198 100.23 127.198H83.2914V82.5737ZM95.2587 117.355H97.9591C105.078 117.355 111.154 113.536 111.154 104.886C111.154 96.8917 105.753 92.4173 98.0818 92.4173H95.2587V117.355Z" fill="white"/>
    <path d="M179.951 104.051C179.951 118.488 169.272 128.69 154.543 128.69C139.814 128.69 129.136 118.488 129.136 104.051C129.136 90.5677 141.348 81.082 154.543 81.082C167.738 81.082 179.951 90.5677 179.951 104.051ZM141.533 104.11C141.533 111.806 147.363 117.414 154.482 117.414C161.601 117.414 167.431 111.806 167.431 104.11C167.431 97.9654 161.601 92.2978 154.482 92.2978C147.424 92.2978 141.533 97.9654 141.533 104.11Z" fill="white"/>
    <path d="M186.272 82.5737H198.239L220.087 109.897H220.21V82.5737H232.178V127.198H220.21L198.362 99.815H198.239V127.198H186.272V82.5737Z" fill="white"/>
    <path d="M253.842 119.443L250.65 127.198H238.008L255.683 82.5737H268.693L286 127.198H273.296L270.289 119.443H253.842ZM262.188 96.3548H262.065L257.156 110.554H267.098L262.188 96.3548Z" fill="white"/>
    <path d="M70.2196 171.643C74.9451 170.092 75.252 164.364 70.6492 164.364C69.3604 164.364 67.8261 165.259 66.7828 166.989L60.5229 177.549C60.2161 178.026 59.9706 178.444 59.6024 178.861C58.0067 176.714 58.4363 173.492 60.707 172.06L59.7865 170.927C54.8768 173.969 56.3497 182.68 64.5121 182.68C71.447 182.68 74.6996 174.566 70.2196 171.643ZM64.4507 180.95C63.0391 180.95 61.9958 180.651 61.0753 180.174C61.5049 179.697 61.8731 179.16 62.2413 178.563L66.1691 171.941L66.7828 172.001C72.2448 173.134 70.0968 180.95 64.4507 180.95ZM66.9669 170.629L68.8694 167.467C70.5878 164.603 72.7358 166.274 71.5697 168.421C70.6492 170.092 69.3604 170.569 66.9669 170.629Z" fill="white"/>
    <path d="M89.9196 178.981C89.5514 180.294 90.2878 181.427 91.8221 181.427C92.7427 181.427 93.9087 180.831 95.0748 179.936C95.1975 180.831 95.9339 181.427 97.1 181.427C98.3274 181.427 99.6776 180.592 101.028 179.399C100.782 180.592 101.335 181.427 102.501 181.427C103.789 181.427 105.201 180.294 106.306 179.28C106.06 180.473 106.797 181.427 108.27 181.427C110.172 181.427 112.381 179.399 114.345 177.251C114.345 177.192 114.284 177.192 114.284 177.132C115.573 175.7 116.677 174.149 117.537 173.075C116.616 175.402 117.107 179.638 114.898 179.638C114.1 179.638 113.793 178.802 113.793 178.802L112.32 179.518C112.32 179.518 112.75 181.368 114.898 181.368C115.143 181.368 115.327 181.368 115.573 181.308H115.634C117.352 181.069 119.009 180.055 120.482 178.802C120.544 180.294 121.71 181.368 123.612 181.368C126.251 181.368 128.89 179.339 130.793 177.192C130.609 176.893 130.24 176.535 129.934 176.416L129.749 176.595C128.092 178.504 125.944 179.996 124.287 179.996C122.876 179.996 122.017 179.101 123.06 177.311L123.305 176.893C124.778 177.49 127.601 177.192 129.381 174.268L129.688 173.731C130.915 171.643 129.749 170.092 127.847 170.092C125.944 170.092 124.471 171.047 123.49 172.717L121.219 176.476H121.157L120.973 176.655C120.114 177.609 119.071 178.504 118.15 179.101C118.887 176.953 118.703 173.612 120.176 170.748L118.457 169.854C117.475 171.166 115.389 174.089 113.302 176.476L113.363 176.535L113.302 176.655C111.645 178.564 109.988 180.055 108.945 180.055C108.454 180.055 108.147 179.697 108.699 178.802L113.67 170.331H111.338L107.226 177.371C105.446 178.922 104.096 179.817 103.667 179.638C103.114 179.399 103.667 178.564 103.974 178.086L108.515 170.39H106.183L102.501 176.595C102.439 176.535 102.378 176.535 102.317 176.476L102.132 176.655C100.475 178.564 98.8184 180.055 97.7751 180.055C97.2841 180.055 96.9773 179.697 97.5296 178.802L101.273 172.419H99.9231C99.9844 171.464 99.0025 170.152 97.4682 170.152C96.2408 170.152 94.461 171.106 93.4791 172.777L91.147 176.714C91.0243 176.595 90.9015 176.535 90.7788 176.476L90.5947 176.655C88.9377 178.564 86.7897 180.055 85.1326 180.055C83.7211 180.055 82.8619 179.16 83.9052 177.371L86.2987 173.314C87.6489 171.047 90.0423 171.464 88.6308 173.791L88.3239 174.328H90.2264L90.5333 173.791C91.7607 171.703 90.5947 170.152 88.6922 170.152C86.7897 170.152 85.3168 171.106 84.3348 172.777L82.0027 176.655C81.9414 176.595 81.88 176.595 81.8186 176.535L81.6345 176.714C79.9775 178.623 77.8295 180.115 76.1725 180.115C74.7609 180.115 73.9017 179.22 74.9451 177.43L75.1905 177.013C76.6634 177.609 79.4865 177.311 81.2663 174.388L81.5731 173.851C82.8005 171.763 81.6345 170.212 79.732 170.212C77.8295 170.212 76.3566 171.166 75.3746 172.837L72.9198 176.893C71.4469 179.28 72.7357 181.547 75.4974 181.547C77.5226 181.547 79.6092 180.353 81.2663 178.802C81.2049 180.353 82.4323 181.547 84.3962 181.547C86.3601 181.427 88.2626 180.353 89.9196 178.981ZM125.515 173.254C126.865 170.987 129.258 171.405 127.847 173.731L127.54 174.268C126.435 176.118 124.901 176.058 124.042 175.76L125.515 173.254ZM92.2517 178.802L95.5044 173.314C96.7318 171.226 99.248 171.763 98.0819 173.791L96.2408 176.893C94.8293 179.041 93.4177 180.055 92.4972 180.055C92.0062 179.996 91.6993 179.697 92.2517 178.802ZM77.3999 173.254C78.7501 170.987 81.1435 171.405 79.732 173.731L79.4251 174.268C78.3205 176.118 76.7862 176.058 75.927 175.76L77.3999 173.254Z" fill="white"/>
    <path d="M156.323 181.427C158.962 181.427 161.601 179.399 163.503 177.251C163.319 176.953 162.951 176.595 162.644 176.475L162.46 176.654C160.803 178.563 158.655 180.055 156.998 180.055C155.587 180.055 154.727 179.16 155.771 177.37L156.016 176.953C157.489 177.549 160.312 177.251 162.092 174.328L162.399 173.791C163.626 171.703 162.46 170.152 160.558 170.152C158.655 170.152 157.182 171.106 156.2 172.777L153.93 176.535C153.93 176.535 153.868 176.535 153.868 176.475L153.684 176.654C152.027 178.563 150.37 180.055 149.327 180.055C148.836 180.055 148.529 179.697 149.081 178.802L152.457 173.075C153.439 171.345 152.518 170.092 151.229 170.092C150.247 170.092 149.143 170.629 147.977 171.822L151.72 165.558H149.327L142.76 176.595C142.699 176.535 142.576 176.475 142.515 176.416L142.33 176.595C140.673 178.504 139.016 179.995 137.973 179.995C137.482 179.995 137.175 179.637 137.728 178.742L142.699 170.271H144.601L145.276 169.197H143.374L145.583 165.498H143.251L141.042 169.197H138.955L138.28 170.271H140.428L135.764 178.146C134.782 179.816 135.457 181.367 137.359 181.367C138.525 181.367 139.753 180.651 141.042 179.578L140.121 181.129H142.453L146.013 175.163C149.572 170.808 151.168 171.345 150.186 173.015L147.179 178.146C146.197 179.816 146.872 181.367 148.774 181.367C150.186 181.367 151.782 180.293 153.254 178.862C153.254 180.353 154.421 181.427 156.323 181.427ZM158.226 173.254C159.576 170.987 161.969 171.404 160.558 173.731L160.251 174.268C159.146 176.117 157.612 176.058 156.753 175.759L158.226 173.254Z" fill="white"/>
    <path d="M226.9 176.475L226.716 176.654C225.059 178.563 223.402 180.054 222.358 180.054C221.867 180.054 221.561 179.696 222.113 178.802L229.968 165.557H227.636L224.199 171.285C223.77 170.628 223.033 170.091 222.051 170.091C220.824 170.091 219.044 171.046 218.062 172.716L215.792 176.534C215.73 176.534 215.669 176.475 215.669 176.475L215.485 176.654C213.828 178.563 212.171 180.054 211.127 180.054C210.636 180.054 210.33 179.696 210.882 178.802L214.257 173.074C215.239 171.344 214.319 170.091 213.03 170.091C212.048 170.091 210.943 170.628 209.777 171.762L210.636 170.27H208.304L204.561 176.534C204.499 176.475 204.438 176.415 204.315 176.415L204.131 176.594C202.474 178.503 200.817 179.995 199.774 179.995C199.283 179.995 198.976 179.637 199.528 178.742L203.272 172.358H202.106C202.167 171.404 201.185 170.091 199.651 170.091C198.424 170.091 196.644 171.046 195.662 172.716L193.391 176.475L193.268 176.594C191.611 178.503 189.954 179.995 188.911 179.995C188.42 179.995 188.113 179.637 188.666 178.742L190.998 174.804C191.796 173.432 191.427 172.657 190.691 171.762L189.402 170.211C189.095 169.793 189.095 169.316 189.525 168.898L188.297 167.586C186.947 168.719 186.886 170.032 187.684 171.046L187.868 171.285C186.824 172.716 185.474 174.625 183.94 176.356C184.001 176.415 184.063 176.475 184.124 176.534C182.222 178.682 180.565 180.054 178.724 180.83L181.669 175.938H179.399L179.153 176.356C177.926 178.444 176.514 179.995 174.673 179.995C173.077 179.995 172.771 178.444 174.182 176.117L174.857 174.983C175.287 175.043 175.716 175.103 176.207 175.103C184.492 175.103 188.482 164.304 181.178 164.304C179.89 164.304 178.355 165.199 177.312 166.929L173.691 173.015C172.341 172.299 171.604 171.046 171.604 169.793C171.604 168.719 172.095 167.705 173.077 166.929L172.341 165.617C170.684 166.75 169.947 168.302 169.947 169.853C169.947 171.642 170.991 173.373 172.893 174.327L172.218 175.52C170.561 178.265 170.868 181.307 174.182 181.307C175.164 181.307 176.023 181.009 176.698 180.591L176.085 181.605C172.955 182.56 170.991 183.753 170.991 185.483C170.991 187.631 174.428 188.108 176.085 185.304L177.864 182.321C180.258 181.605 182.651 179.995 185.229 177.071C185.167 177.012 185.167 176.952 185.106 176.833C186.149 175.64 187.009 174.506 188.788 172.179L189.095 172.537C189.402 172.895 189.525 173.373 189.218 173.85L186.763 178.026C185.781 179.696 186.456 181.248 188.359 181.248C189.525 181.248 190.814 180.532 192.041 179.458C192.041 180.472 192.716 181.248 194.066 181.248C194.987 181.248 196.153 180.651 197.319 179.756C197.442 180.651 198.178 181.248 199.344 181.248C200.449 181.248 201.676 180.591 202.842 179.577L201.983 181.009H204.315L207.875 174.983C211.434 170.628 213.03 171.225 211.987 172.895L208.979 178.026C207.998 179.696 208.673 181.248 210.575 181.248C211.802 181.248 213.153 180.412 214.503 179.279C214.38 180.412 215.117 181.248 216.528 181.248C217.449 181.248 218.615 180.651 219.781 179.756C219.903 180.651 220.64 181.248 221.806 181.248C223.708 181.248 225.918 179.219 227.882 177.071C227.636 176.952 227.207 176.594 226.9 176.475ZM179.092 168.003C179.767 166.87 180.565 166.333 181.178 166.333C184.861 166.333 182.283 173.671 176.207 173.671H175.716L179.092 168.003ZM174.121 185.066C173.63 185.901 172.832 185.782 172.832 185.185C172.832 184.588 173.384 183.932 175.164 183.276L174.121 185.066ZM198.485 176.833C197.073 178.981 195.662 179.995 194.741 179.995C194.25 179.995 193.944 179.637 194.496 178.742L197.749 173.253C198.976 171.165 201.492 171.702 200.326 173.731L198.485 176.833ZM221.008 176.713C219.597 178.981 218.185 179.995 217.203 179.995C216.712 179.995 216.405 179.637 216.958 178.742L220.21 173.253C221.438 171.165 223.954 171.702 222.788 173.731L221.008 176.713Z" fill="white"/>
    <path d="M149.143 197.952L148.959 198.131C147.302 200.04 145.645 201.531 144.601 201.531C144.11 201.531 143.803 201.173 144.356 200.278L147.731 194.551C148.713 192.821 147.793 191.568 146.504 191.568C145.522 191.568 144.417 192.105 143.251 193.239L144.11 191.747H141.778L138.035 198.071C137.912 198.011 137.85 197.952 137.728 197.892L137.544 198.071C136.5 199.205 135.211 199.741 134.045 199.741L136.255 196.043C137.666 193.656 136.378 191.449 134.168 191.449C132.388 191.449 130.977 192.165 129.627 194.432L128.461 196.341L127.479 198.011C127.417 197.952 127.356 197.952 127.295 197.892L127.111 198.071C125.208 200.219 123.551 201.591 121.71 202.366L128.092 191.747H125.76L121.648 198.727C119.869 200.338 118.457 201.233 118.028 201.054C117.475 200.815 118.028 199.98 118.334 199.503L122.876 191.807H120.544L116.8 198.071C116.739 198.011 116.677 198.011 116.616 197.952L116.432 198.131C114.775 200.04 113.118 201.531 112.075 201.531C111.584 201.531 111.277 201.173 111.829 200.278L115.205 194.551C116.186 192.821 115.266 191.568 113.977 191.568C112.995 191.568 111.89 192.105 110.724 193.239L111.584 191.747H109.252L105.508 198.011C105.447 197.952 105.385 197.892 105.262 197.892L105.078 198.071C103.421 199.98 101.764 201.472 100.721 201.472C100.23 201.472 99.9231 201.114 100.475 200.219L104.219 193.835H102.869C102.93 192.881 101.948 191.568 100.414 191.568C99.1867 191.568 97.4069 192.523 96.425 194.193L94.0315 198.25C93.8474 198.131 93.6633 198.011 93.5405 197.952L93.3564 198.131C91.6994 200.04 89.6128 201.531 87.3421 201.531C85.7464 201.531 84.7645 199.98 86.176 197.653L86.8511 196.52C87.2807 196.58 87.7103 196.639 88.2013 196.639C90.6561 196.639 93.4792 195.386 95.3203 192.284C95.9954 191.151 96.2409 190.136 96.2409 189.242C96.2409 187.213 94.8907 185.841 93.1723 185.841C91.8835 185.841 90.3492 186.736 89.3059 188.466L85.685 194.551C84.3349 193.835 83.5984 192.582 83.5984 191.33C83.5984 190.256 84.0894 189.242 85.0713 188.466L84.3349 187.154C82.6779 188.287 81.9414 189.838 81.9414 191.389C81.9414 193.179 82.9847 194.909 84.8872 195.864L84.2121 197.057C82.5551 199.801 83.5371 202.844 86.8511 202.844C89.4287 202.844 91.3925 201.71 92.9882 200.219C92.4972 201.651 93.2337 202.844 94.8907 202.844C95.8113 202.844 96.9773 202.247 98.1434 201.352C98.2661 202.247 99.0026 202.844 100.169 202.844C101.273 202.844 102.501 202.187 103.667 201.173L102.808 202.605H105.14L108.699 196.58C112.259 192.224 113.854 192.821 112.811 194.492L109.804 199.622C108.822 201.293 109.497 202.844 111.4 202.844C112.627 202.844 114.038 202.008 115.389 200.815C115.082 202.068 115.695 202.844 116.862 202.844C117.966 202.844 119.255 201.949 120.298 200.994L119.01 203.142C115.88 204.037 113.854 205.29 113.854 207.02C113.854 209.168 117.291 209.645 118.948 206.841L120.728 203.858C122.692 203.261 124.594 202.068 126.62 200.159C126.313 203.321 130.609 204.037 133.248 200.815H133.739C134.598 200.815 135.764 200.517 136.807 199.92L135.273 202.545H137.605L141.164 196.52C144.724 192.165 146.32 192.761 145.276 194.432L142.269 199.562C141.287 201.233 141.962 202.784 143.865 202.784C145.767 202.784 147.977 200.756 149.941 198.608C149.879 198.429 149.45 198.071 149.143 197.952ZM91.2084 189.48C91.8835 188.347 92.6813 187.81 93.2951 187.81C94.1542 187.81 94.5838 188.347 94.5838 189.182C94.5838 191.27 91.9449 195.088 88.324 195.088H87.833L91.2084 189.48ZM99.4322 198.31C98.0206 200.457 96.6091 201.472 95.6885 201.472C95.1976 201.472 94.8907 201.114 95.443 200.219L98.6957 194.73C99.9231 192.642 102.439 193.179 101.273 195.207L99.4322 198.31ZM117.107 206.543C116.616 207.378 115.818 207.258 115.818 206.662C115.818 206.065 116.371 205.409 118.15 204.753L117.107 206.543ZM132.818 198.071H132.695C131.959 198.071 131.345 198.668 131.345 199.443C131.345 199.741 131.406 199.98 131.591 200.219V200.278C130.486 202.128 127.847 201.77 129.197 199.384L130.977 196.401L132.082 194.551C133.739 191.867 135.948 192.94 134.536 195.267L132.818 198.071Z" fill="white"/>
    <path d="M203.088 198.728C202.965 198.37 202.536 198.012 202.229 197.953L202.045 198.132C201.185 199.086 200.142 199.981 199.221 200.578C199.958 198.43 199.774 195.089 201.247 192.225L199.528 191.33C198.546 192.643 196.46 195.566 194.373 197.953L194.189 198.132C192.532 200.041 190.875 201.532 189.832 201.532C189.341 201.532 188.85 201.055 188.85 199.981V199.026C190.507 199.205 192.225 198.191 193.33 196.342L193.944 195.268C196.092 191.629 192.593 190.436 190.2 192.583L193.514 186.975H191.182L184.554 198.191C184.431 198.072 184.247 197.953 184.124 197.893L183.94 198.072C182.283 199.981 180.135 201.472 178.478 201.472C177.067 201.472 176.207 200.578 177.251 198.788L179.644 194.731C180.994 192.464 183.388 192.882 181.976 195.208L181.669 195.745H183.572L183.879 195.208C185.106 193.12 183.94 191.569 182.038 191.569C180.135 191.569 178.662 192.524 177.68 194.194L175.409 198.012C175.348 198.012 175.287 197.953 175.287 197.953L175.103 198.132C173.446 200.041 171.789 201.532 170.745 201.532C170.254 201.532 169.947 201.174 170.5 200.279L175.471 191.808H173.139L169.027 198.847C167.247 200.399 165.897 201.293 165.467 201.114C164.915 200.876 165.467 200.041 165.774 199.563L170.316 191.867H167.984L163.442 199.444C162.951 199.862 162.399 200.279 161.969 200.637C162.706 198.489 162.522 195.149 163.994 192.285L162.276 191.39C161.294 192.703 155.955 199.623 153.807 202.009C153.991 202.308 154.359 202.546 154.666 202.785C156.016 201.293 160.435 195.745 161.233 194.671C160.312 196.998 160.803 201.234 158.594 201.234C157.796 201.234 157.489 200.399 157.489 200.399L156.016 201.114C156.016 201.114 156.446 202.964 158.594 202.964C158.839 202.964 159.023 202.964 159.269 202.904H159.33C160.496 202.725 161.662 202.248 162.767 201.472C162.767 202.367 163.319 202.964 164.301 202.964C165.59 202.964 167.002 201.83 168.106 200.816C167.861 202.009 168.597 202.964 170.07 202.964C171.543 202.964 173.139 201.83 174.673 200.339C174.673 201.83 175.9 202.964 177.803 202.964C179.705 202.964 181.547 201.95 183.204 200.578L181.915 202.785H184.247L186.886 198.31V200.1C186.886 202.009 187.254 203.023 189.157 203.023C191.059 203.023 193.268 200.995 195.232 198.847C196.583 197.356 197.687 195.805 198.546 194.731C197.626 197.058 198.117 201.293 195.907 201.293C195.11 201.293 194.803 200.458 194.803 200.458L193.33 201.174C193.33 201.174 193.759 203.023 195.907 203.023C196.153 203.023 196.337 203.024 196.583 202.964H196.644C198.976 202.546 201.369 200.697 203.088 198.728ZM187.622 196.938L188.297 195.805C190.998 192.166 192.839 193.18 191.98 194.552L190.875 196.401C190.2 197.595 188.175 198.43 187.622 196.938Z" fill="white"/>
    <path d="M203.026 200.279C202.29 200.279 201.676 200.876 201.676 201.592C201.676 202.307 202.229 202.904 203.026 202.904C203.763 202.904 204.377 202.367 204.377 201.592C204.377 200.876 203.763 200.279 203.026 200.279Z" fill="white"/>
    <path d="M203.149 199.384H205.481L212.785 187.034H210.452L203.149 199.384Z" fill="white"/>
    <path d="M53.2196 165.618C53.2196 165.797 53.1582 165.976 53.0968 166.155C53.0354 166.334 52.9127 166.512 52.79 166.632C52.6672 166.751 52.4831 166.87 52.299 166.99C52.1149 167.049 51.8694 167.109 51.6239 167.109C51.3171 167.109 51.0716 167.049 50.8261 166.93C50.5806 166.811 50.3351 166.691 50.151 166.512C49.9669 166.334 49.9055 166.155 49.7828 165.916C49.7214 165.677 49.66 165.439 49.66 165.14C49.66 164.603 49.7828 164.186 49.9669 163.709C50.151 163.291 50.3965 162.873 50.7647 162.575C50.8875 162.456 51.0716 162.277 51.2557 162.157C51.4398 162.038 51.6239 161.919 51.808 161.859C51.9921 161.799 52.1149 161.68 52.2376 161.621C52.3604 161.561 52.4217 161.561 52.4831 161.501L53.3423 162.694C53.2196 162.754 53.0354 162.814 52.8513 162.933C52.6672 162.993 52.4831 163.112 52.299 163.231C52.1149 163.351 51.9921 163.53 51.8694 163.709C51.7466 163.888 51.6853 164.067 51.6853 164.305C52.1149 164.305 52.4217 164.424 52.7286 164.663C53.0968 164.842 53.2196 165.2 53.2196 165.618ZM58.0679 165.618C58.0679 165.797 58.0065 165.976 57.9451 166.155C57.8838 166.334 57.761 166.512 57.6383 166.632C57.5155 166.751 57.3314 166.87 57.1473 166.99C56.9632 167.049 56.7177 167.109 56.4722 167.109C56.1654 167.109 55.9199 167.049 55.6744 166.93C55.4289 166.811 55.1834 166.691 54.9993 166.512C54.8766 166.334 54.7538 166.155 54.6311 165.916C54.5697 165.677 54.5083 165.439 54.5083 165.14C54.5083 164.603 54.6311 164.186 54.8152 163.709C54.9993 163.291 55.2448 162.873 55.613 162.575C55.7358 162.456 55.9199 162.277 56.104 162.157C56.2881 162.038 56.4722 161.919 56.6563 161.859C56.8404 161.799 56.9632 161.68 57.0859 161.621C57.2087 161.561 57.27 161.561 57.3314 161.501L58.1906 162.694C58.0679 162.754 57.8838 162.814 57.6996 162.933C57.5155 162.993 57.3314 163.112 57.1473 163.231C56.9632 163.351 56.8404 163.53 56.7177 163.709C56.595 163.888 56.5336 164.067 56.5336 164.305C56.9632 164.305 57.27 164.424 57.5769 164.663C57.8838 164.842 58.0679 165.2 58.0679 165.618Z" fill="white"/>
    <path d="M220.763 200.756C220.763 200.577 220.824 200.398 220.885 200.219C220.947 200.04 221.069 199.861 221.192 199.742C221.315 199.623 221.499 199.503 221.683 199.384C221.867 199.324 222.113 199.265 222.358 199.265C222.665 199.265 222.911 199.324 223.156 199.444C223.402 199.563 223.647 199.682 223.831 199.861C224.015 200.04 224.077 200.219 224.199 200.458C224.261 200.697 224.322 200.935 224.322 201.234C224.322 201.77 224.199 202.188 224.015 202.665C223.831 203.083 223.586 203.501 223.217 203.799C223.095 203.918 222.911 204.097 222.726 204.216C222.542 204.336 222.358 204.455 222.174 204.515C221.99 204.574 221.867 204.694 221.745 204.753C221.622 204.813 221.56 204.813 221.499 204.873L220.64 203.68C220.763 203.62 220.947 203.56 221.131 203.441C221.315 203.381 221.499 203.262 221.683 203.143C221.867 203.023 221.99 202.844 222.113 202.665C222.236 202.486 222.297 202.307 222.297 202.069C221.867 202.069 221.56 201.949 221.254 201.711C220.947 201.532 220.763 201.174 220.763 200.756ZM215.976 200.756C215.976 200.577 216.037 200.398 216.098 200.219C216.16 200.04 216.282 199.861 216.405 199.742C216.528 199.623 216.712 199.503 216.896 199.384C217.08 199.324 217.326 199.265 217.571 199.265C217.878 199.265 218.124 199.324 218.369 199.444C218.615 199.563 218.86 199.682 219.044 199.861C219.167 200.04 219.29 200.219 219.412 200.458C219.474 200.697 219.535 200.935 219.535 201.234C219.535 201.77 219.412 202.188 219.228 202.665C219.044 203.083 218.799 203.501 218.43 203.799C218.308 203.918 218.124 204.097 217.94 204.216C217.755 204.336 217.571 204.455 217.387 204.515C217.203 204.574 217.08 204.694 216.958 204.753C216.835 204.813 216.773 204.813 216.712 204.873L215.853 203.68C216.037 203.62 216.16 203.56 216.344 203.441C216.528 203.381 216.712 203.262 216.896 203.143C217.08 203.023 217.203 202.844 217.326 202.665C217.449 202.486 217.51 202.307 217.51 202.069C217.08 202.069 216.773 201.949 216.467 201.711C216.098 201.532 215.976 201.174 215.976 200.756Z" fill="white"/>
  </g>
  <defs>
    <filter id="filter0_d_73_249" x="0" y="0.00497437" width="290" height="216.784" filterUnits="userSpaceOnUse" color-interpolation-filters="sRGB">
      <feFlood flood-opacity="0" result="BackgroundImageFix"/>
      <feColorMatrix in="SourceAlpha" type="matrix" values="0 0 0 0 0 0 0 0 0 0 0 0 0 0 0 0 0 0 127 0" result="hardAlpha"/>
      <feOffset dy="4"/>
      <feGaussianBlur stdDeviation="2"/>
      <feComposite in2="hardAlpha" operator="out"/>
      <feColorMatrix type="matrix" values="0 0 0 0 0 0 0 0 0 0 0 0 0 0 0 0 0 0 0.25 0"/>
      <feBlend mode="normal" in2="BackgroundImageFix" result="effect1_dropShadow_73_249"/>
      <feBlend mode="normal" in="SourceGraphic" in2="effect1_dropShadow_73_249" result="shape"/>
    </filter>
  </defs>
</svg>
